<svg width="192" height="58" viewBox="0 0 192 58" fill="none" xmlns="http://www.w3.org/2000/svg">
<path d="M67.256 37.768C64.952 39.448 62.048 40.288 58.544 40.288C54.656 40.288 51.5 39.172 49.076 36.94C46.652 34.708 45.44 31.672 45.44 27.832C45.44 24.04 46.7 21.004 49.22 18.724C51.764 16.444 54.98 15.304 58.868 15.304C61.604 15.304 63.968 15.808 65.96 16.816V22.36C63.656 21.04 61.292 20.38 58.868 20.38C56.588 20.38 54.776 21.064 53.432 22.432C52.088 23.776 51.416 25.576 51.416 27.832C51.416 30.112 52.076 31.924 53.396 33.268C54.716 34.612 56.516 35.284 58.796 35.284C59.828 35.284 60.848 35.128 61.856 34.816V30.244H57.932V25.528H67.256V37.768ZM85.906 38.956C84.658 39.772 82.75 40.18 80.182 40.18C77.182 40.18 74.842 39.316 73.162 37.588C71.506 35.836 70.678 33.592 70.678 30.856C70.678 27.952 71.482 25.684 73.09 24.052C74.722 22.396 76.726 21.568 79.102 21.568C81.55 21.568 83.482 22.288 84.898 23.728C86.314 25.144 87.022 27.268 87.022 30.1C87.022 30.652 86.926 31.6 86.734 32.944H76.006C76.366 33.952 76.99 34.732 77.878 35.284C78.766 35.836 79.834 36.112 81.082 36.112C82.93 36.112 84.538 35.596 85.906 34.564V38.956ZM79.318 25.564C78.478 25.564 77.734 25.876 77.086 26.5C76.438 27.1 76.006 28 75.79 29.2H82.126V28.768C81.958 26.632 81.022 25.564 79.318 25.564ZM101.429 39.604C100.541 39.988 99.3413 40.18 97.8293 40.18C93.6773 40.18 91.6013 38.104 91.6013 33.952V25.6H88.9733V21.748H91.6013V17.428H96.8573V21.748H101.105V25.6H96.8573V33.988C96.8573 34.636 97.0373 35.128 97.3973 35.464C97.7813 35.8 98.2733 35.968 98.8733 35.968C99.8333 35.968 100.685 35.728 101.429 35.248V39.604ZM110.384 40H104.84V15.736H110.924L116.576 25.78C117.368 27.196 118.052 28.528 118.628 29.776C119.228 31 119.612 31.864 119.78 32.368L120.068 33.16C119.828 31.384 119.708 28.924 119.708 25.78V15.736H125.252V40H119.168L113.372 29.956C112.604 28.66 111.92 27.388 111.32 26.14C110.744 24.868 110.348 23.932 110.132 23.332L109.844 22.432C110.204 24.592 110.384 27.1 110.384 29.956V40ZM144.09 38.956C142.842 39.772 140.934 40.18 138.366 40.18C135.366 40.18 133.026 39.316 131.346 37.588C129.69 35.836 128.862 33.592 128.862 30.856C128.862 27.952 129.666 25.684 131.274 24.052C132.906 22.396 134.91 21.568 137.286 21.568C139.734 21.568 141.666 22.288 143.082 23.728C144.498 25.144 145.206 27.268 145.206 30.1C145.206 30.652 145.11 31.6 144.918 32.944H134.19C134.55 33.952 135.174 34.732 136.062 35.284C136.95 35.836 138.018 36.112 139.266 36.112C141.114 36.112 142.722 35.596 144.09 34.564V38.956ZM137.502 25.564C136.662 25.564 135.918 25.876 135.27 26.5C134.622 27.1 134.19 28 133.974 29.2H140.31V28.768C140.142 26.632 139.206 25.564 137.502 25.564ZM158.245 40H152.845L146.977 21.748H152.413L153.997 27.76C154.381 29.272 154.705 30.64 154.969 31.864C155.233 33.064 155.389 33.892 155.437 34.348L155.545 35.032C155.713 33.592 156.301 31.168 157.309 27.76L159.073 21.748H163.609L165.337 27.76C165.769 29.296 166.129 30.676 166.417 31.9C166.705 33.1 166.885 33.928 166.957 34.384L167.065 35.032C167.233 33.616 167.797 31.192 168.757 27.76L170.449 21.748H175.633L169.801 40H164.401L162.817 34.024C162.481 32.728 162.181 31.516 161.917 30.388C161.677 29.26 161.521 28.456 161.449 27.976L161.341 27.256C161.101 28.864 160.597 31.12 159.829 34.024L158.245 40ZM190.417 34.492C190.417 36.292 189.769 37.684 188.473 38.668C187.177 39.652 185.461 40.144 183.325 40.144C181.117 40.144 179.269 39.772 177.781 39.028V34.348C179.437 35.5 181.189 36.076 183.037 36.076C184.357 36.076 185.017 35.656 185.017 34.816C185.017 34.6 184.957 34.396 184.837 34.204C184.717 34.012 184.513 33.832 184.225 33.664C183.937 33.496 183.673 33.364 183.433 33.268C183.193 33.148 182.845 32.992 182.389 32.8C181.933 32.608 181.585 32.452 181.345 32.332C178.921 31.18 177.709 29.452 177.709 27.148C177.709 25.372 178.381 23.992 179.725 23.008C181.093 22.024 182.785 21.532 184.801 21.532C186.673 21.532 188.233 21.784 189.481 22.288V26.788C188.209 26.044 186.721 25.672 185.017 25.672C184.393 25.672 183.913 25.804 183.577 26.068C183.241 26.308 183.073 26.62 183.073 27.004C183.073 27.22 183.133 27.424 183.253 27.616C183.373 27.808 183.565 27.988 183.829 28.156C184.117 28.324 184.381 28.48 184.621 28.624C184.885 28.744 185.233 28.9 185.665 29.092C186.121 29.284 186.481 29.452 186.745 29.596C187.849 30.172 188.737 30.844 189.409 31.612C190.081 32.356 190.417 33.316 190.417 34.492Z" fill="white"/>
<path d="M24.6817 21.1533H15.7411C14.9531 21.1533 14.3144 21.7919 14.3144 22.58C14.3144 23.368 14.953 24.0067 15.7411 24.0067H24.6817C25.4701 24.0067 26.1084 23.3681 26.1084 22.58C26.1083 21.7919 25.4697 21.1533 24.6817 21.1533Z" fill="white"/>
<path d="M28.1057 28.0489H15.7411C14.9531 28.0489 14.3144 28.6875 14.3144 29.4756C14.3144 30.2636 14.953 30.9023 15.7411 30.9023H28.1057C28.8937 30.9023 29.5324 30.2637 29.5324 29.4756C29.5324 28.6875 28.8937 28.0489 28.1057 28.0489Z" fill="white"/>
<path d="M34.5733 12.2127H9.32098C8.53298 12.2127 7.89427 12.8513 7.89427 13.6394V27.0978H5.37384C2.41059 27.0978 0 29.5088 0 32.4716V40.4135C0 43.3767 2.41059 45.7873 5.37384 45.7873C5.61635 45.7873 5.85513 45.7711 6.08864 45.7398H29.6275C33.141 45.7398 36 42.8812 36 39.3673V13.6394C36 12.8513 35.3614 12.2127 34.5733 12.2127ZM7.89434 40.4135C7.89434 41.6361 7.0188 42.6586 5.86181 42.8864H5.37391V42.9339C3.98384 42.9339 2.85342 41.803 2.85342 40.4134V32.4716C2.85342 31.082 3.98433 29.9511 5.37391 29.9511H7.89441V40.4135H7.89434ZM33.1466 39.3672C33.1466 41.2747 31.5354 42.8864 29.6275 42.8864H10.1442C10.5299 42.1459 10.7477 41.3046 10.7477 40.4135V15.066H33.1466V39.3672Z" fill="white"/>
<path d="M24.6817 34.517H15.7411C14.9531 34.517 14.3144 35.1556 14.3144 35.9437C14.3144 36.7317 14.953 37.3704 15.7411 37.3704H24.6817C25.4701 37.3704 26.1084 36.7318 26.1084 35.9437C26.1083 35.1556 25.4697 34.517 24.6817 34.517Z" fill="white"/>
</svg>
