<svg width="25" height="25" viewBox="0 0 25 25" fill="none" xmlns="http://www.w3.org/2000/svg">
<path d="M6.35555 14.6617C6.18772 14.3585 6.0349 14.046 5.89879 13.7241C5.38399 12.507 5.1229 11.2151 5.1229 9.88432C5.1229 8.55356 5.38391 7.2617 5.89879 6.04453C6.39566 4.8698 7.10659 3.81519 8.01184 2.90994C8.91709 2.00469 9.97174 1.29376 11.1464 0.79689C12.3636 0.282135 13.6555 0.0210876 14.9862 0.0210876C16.3169 0.0210876 17.6088 0.282135 18.826 0.796974C20.0007 1.29385 21.0553 2.00478 21.9605 2.91003C22.8658 3.81528 23.5767 4.86988 24.0736 6.04462C24.5884 7.26178 24.8495 8.55365 24.8495 9.88436C24.8495 11.2151 24.5885 12.507 24.0736 13.7241C23.5768 14.8989 22.8658 15.9535 21.9606 16.8587C21.0553 17.764 20.0007 18.4749 18.826 18.9718C17.6088 19.4866 16.3169 19.7477 14.9862 19.7477C13.6555 19.7477 12.3636 19.4867 11.1464 18.9718C10.9425 18.8855 10.7424 18.7924 10.5458 18.6933L5.01944 24.2197C4.52986 24.7093 3.87899 24.9789 3.18666 24.9789C2.49433 24.9789 1.84343 24.7093 1.35389 24.2197L0.908438 23.7743C-0.102135 22.7637 -0.102135 21.1194 0.908396 20.1088L6.35555 14.6617ZM10.2687 16.4151C10.7742 16.7809 11.3238 17.0894 11.908 17.3312C12.8565 17.7237 13.8959 17.9407 14.9862 17.9407C19.4356 17.9407 23.0425 14.3338 23.0425 9.88436C23.0425 5.43496 19.4356 1.82805 14.9862 1.82805C10.5368 1.82805 6.92986 5.435 6.92986 9.88436C6.92986 11.1133 7.20546 12.2776 7.69752 13.3197C7.9638 13.8838 8.29355 14.412 8.67772 14.895C9.13604 15.4711 9.67151 15.983 10.2687 16.4151ZM2.18613 22.4966L2.63159 22.942C2.78491 23.0954 2.98576 23.172 3.18662 23.172C3.38752 23.172 3.58838 23.0953 3.7417 22.942L8.97724 17.7065C8.63934 17.4463 8.31692 17.1639 8.0118 16.8587C7.79407 16.641 7.58785 16.4144 7.39286 16.1798L2.18613 21.3865C1.87961 21.6931 1.87961 22.1901 2.18613 22.4966Z" fill="white"/>
<path d="M3.18664 25C3.88458 25 4.54076 24.7282 5.03434 24.2347L10.5499 18.719C10.746 18.8175 10.9438 18.909 11.1382 18.9912C12.3579 19.5071 13.6526 19.7688 14.9862 19.7688C16.3197 19.7688 17.6144 19.5072 18.8342 18.9912C20.0114 18.4934 21.0683 17.7809 21.9755 16.8737C22.8827 15.9664 23.5951 14.9096 24.0931 13.7323C24.609 12.5126 24.8706 11.218 24.8706 9.88436C24.8706 8.55082 24.609 7.25618 24.0931 6.03639C23.5952 4.85921 22.8827 3.80233 21.9755 2.8951C21.0683 1.98791 20.0114 1.27546 18.8342 0.777532C17.6144 0.261595 16.3198 0 14.9862 0C13.6527 0 12.358 0.261595 11.1382 0.777532C9.96096 1.27546 8.90407 1.98791 7.99688 2.8951C7.08974 3.80225 6.37729 4.85913 5.87932 6.03639C5.36342 7.25609 5.10179 8.55074 5.10179 9.88436C5.10179 11.2179 5.36338 12.5125 5.87932 13.7323C6.01134 14.0444 6.16272 14.3558 6.32941 14.658L0.89344 20.0939C-0.125315 21.1127 -0.125273 22.7705 0.89348 23.7892L1.33893 24.2347C1.83243 24.7282 2.48866 25 3.18664 25ZM10.5417 18.6676L5.00452 24.2048C4.51891 24.6904 3.87336 24.9578 3.18664 24.9578C2.49992 24.9578 1.85432 24.6904 1.36876 24.2048L0.923303 23.7594C-0.0790446 22.757 -0.0790465 21.1261 0.923259 20.1237L6.38167 14.6653L6.37395 14.6515C6.20494 14.3462 6.05162 14.0315 5.91817 13.7159C5.40442 12.5013 5.14396 11.2122 5.14396 9.88436C5.14396 8.55643 5.40446 7.26731 5.91817 6.0528C6.41398 4.88056 7.12339 3.82819 8.02666 2.92488C8.92997 2.02157 9.98234 1.31215 11.1545 0.816337C12.3692 0.302678 13.6583 0.0421792 14.9862 0.0421792C16.3141 0.0421792 17.6032 0.302678 18.8177 0.816379C19.99 1.31215 21.0423 2.02157 21.9457 2.92492C22.849 3.82827 23.5584 4.88068 24.0542 6.05284C24.5679 7.26739 24.8284 8.55652 24.8284 9.8844C24.8284 11.2123 24.5679 12.5014 24.0542 13.716C23.5584 14.8881 22.849 15.9405 21.9457 16.8438C21.0423 17.7472 19.9899 18.4566 18.8177 18.9523C17.6032 19.4661 16.314 19.7265 14.9862 19.7265C13.6583 19.7265 12.3691 19.466 11.1546 18.9523C10.9566 18.8686 10.7549 18.7751 10.5553 18.6745L10.5417 18.6676ZM3.18664 23.193C3.40192 23.193 3.60434 23.1092 3.75665 22.9569L9.00914 17.7044L8.99012 17.6898C8.65121 17.4287 8.32706 17.1441 8.02675 16.8438C7.81248 16.6295 7.60466 16.4016 7.40911 16.1663L7.39431 16.1485L2.17122 21.3716C1.85698 21.6859 1.85698 22.1972 2.17122 22.5115L2.61667 22.9569C2.76894 23.1092 2.97131 23.193 3.18664 23.193ZM8.94537 17.7086L3.72679 22.9271C3.58245 23.0714 3.39062 23.1509 3.1866 23.1509C2.98258 23.1509 2.79074 23.0714 2.64645 22.9271L2.201 22.4817C1.90317 22.1839 1.90317 21.6993 2.201 21.4015L7.39149 16.2111C7.58353 16.441 7.78713 16.6639 7.99693 16.8737C8.2929 17.1696 8.6119 17.4505 8.94537 17.7086ZM14.9863 17.9618C19.4402 17.9618 23.0637 14.3383 23.0637 9.88436C23.0637 5.43045 19.4402 1.80696 14.9862 1.80696C10.5323 1.80696 6.90879 5.43049 6.90879 9.88436C6.90879 11.0882 7.16777 12.2471 7.67847 13.3288C7.9434 13.89 8.27409 14.4213 8.66125 14.9081C9.12117 15.4863 9.65786 15.9991 10.2563 16.4322C10.7668 16.8015 11.3198 17.1105 11.9 17.3506C12.8799 17.7562 13.9183 17.9618 14.9863 17.9618ZM14.9862 1.84914C19.4169 1.84914 23.0215 5.45373 23.0215 9.88436C23.0215 14.315 19.4169 17.9196 14.9863 17.9196C13.9238 17.9196 12.8909 17.7151 11.9161 17.3117C11.339 17.0729 10.7889 16.7655 10.2811 16.398C9.6857 15.9672 9.15183 15.457 8.69427 14.8818C8.30909 14.3977 7.98018 13.869 7.7166 13.3107C7.20855 12.2348 6.95097 11.082 6.95097 9.8844C6.95097 5.45373 10.5556 1.84914 14.9862 1.84914Z" fill="white"/>
</svg>
